<?xml version="1.0" encoding="UTF-8"?>
<svg id="Layer_1" data-name="Layer 1" xmlns="http://www.w3.org/2000/svg" viewBox="0 0 595.28 595.28">
  <defs>
    <style>
      .cls-1 {
        fill: #010f12;
      }

      .cls-2 {
        fill: #fffeff;
      }

      .cls-3 {
        fill: #fff;
      }

      .cls-4 {
        fill: #1bf561;
      }
    </style>
  </defs>
  <rect class="cls-1" x="0" y="0" width="595.28" height="595.28"/>
  <g>
    <g>
      <polygon class="cls-4" points="357.07 201.39 322 298.47 310.68 329.78 269.64 276.49 280.38 248.32 303.05 275.6 357.07 201.39"/>
      <polygon class="cls-2" points="276.93 311.45 233.68 370.82 263.13 293.54 276.93 311.45"/>
    </g>
    <g>
      <path class="cls-3" d="M136.32,230.67l3-5.86,27.63-3.15-20.6-10.56,2.34-4.57,26.58,13.63-2.9,5.65-27.9,3.27,20.77,10.65-2.34,4.57-26.58-13.63Z"/>
      <path class="cls-3" d="M169.81,179.35l15.01-14.35,2.9,3.04-11.33,10.84,5.77,6.04,10.29-9.84,2.87,3-10.29,9.84,6.19,6.48,11.34-10.84,2.9,3.04-15.01,14.35-20.64-21.59Z"/>
      <path class="cls-3" d="M211.69,146.31l4.65-2.18,5.33,11.37,13.27-6.23-5.34-11.37,4.69-2.2,12.69,27.04-4.69,2.2-5.59-11.92-13.27,6.23,5.59,11.92-4.65,2.18-12.69-27.04Z"/>
      <path class="cls-3" d="M267.34,126.83l20.65-2.31.47,4.18-15.59,1.74.93,8.31,14.15-1.58.46,4.13-14.15,1.58,1,8.91,15.59-1.74.47,4.18-20.64,2.31-3.32-29.69Z"/>
      <path class="cls-3" d="M321.53,125.66l7.38,1.86,3.44,21.85c.2,1.3.28,2.72.41,4.1-.04-.01,1.51-2.36,2.31-3.41l13.39-17.61,7.42,1.87-7.3,28.97-4.98-1.26,5.79-22.95-15.52,20.49-4.98-1.25-3.95-25.4-5.78,22.95-4.93-1.24,7.3-28.97Z"/>
      <path class="cls-3" d="M386.17,149.87l4.35,2.74-15.92,25.28-4.35-2.74,15.92-25.28Z"/>
      <path class="cls-3" d="M422.37,179.31l4.66,5.17-14.69,28.33-3.66-4.06,2.99-5.4-9.82-10.89-5.77,2.31-3.59-3.99,29.88-11.48ZM413.57,199.88l8.59-15.85-16.68,6.87,8.1,8.98Z"/>
      <path class="cls-3" d="M451.17,219.88l1.97,4.74-11.6,4.81,5.62,13.54,11.6-4.81,1.99,4.78-27.59,11.45-1.99-4.79,12.16-5.05-5.62-13.54-12.16,5.05-1.97-4.74,27.59-11.45Z"/>
    </g>
    <g>
      <path class="cls-3" d="M187.39,384.52l14.08,16.45-3.33,2.85-10.63-12.42-6.62,5.66,9.65,11.28-3.29,2.82-9.65-11.28-7.1,6.07,10.63,12.42-3.33,2.85-14.08-16.45,23.66-20.25Z"/>
      <path class="cls-3" d="M220.82,417.02l6.06,3.22,2.87,28.85,11.31-21.32,4.73,2.51-14.6,27.52-5.85-3.1-3-29.14-11.4,21.5-4.73-2.51,14.6-27.52Z"/>
      <path class="cls-3" d="M271.37,437.39l21.52,2.4-.48,4.35-16.25-1.81-.97,8.66,14.75,1.64-.48,4.3-14.75-1.64-1.03,9.29,16.25,1.81-.48,4.35-21.53-2.4,3.45-30.96Z"/>
      <path class="cls-3" d="M317.98,438.01l10.76-2.71c11.37-2.86,14.01,2.65,14.99,6.52,1.88,7.46-3.63,10.7-9.44,12.16l15.64,8.11-6.99,1.76-15.16-8.78,2.98,11.85-5.19,1.31-7.6-30.21ZM332.85,450.23c6.14-1.54,6.25-4.68,5.64-7.09-.59-2.36-2.26-5.2-8.44-3.65l-5.81,1.46,2.71,10.76,5.9-1.48Z"/>
      <path class="cls-3" d="M372.52,434.91c-4.99-6.9-7.08-14.52,2.3-21.31,8.24-5.96,14.3-3.98,17.61.59l-4.41,3.2c-2.33-2.64-5.63-3.8-10.6-.2-5.95,4.31-4.22,9.36-.48,14.53,3.74,5.16,8.08,8.27,13.92,4.04,4.81-3.48,5.04-7.97,1.9-12.31l-7.41,5.36-2.57-3.55,11.71-8.47,10.19,14.07-2.48,1.8-3.89-3.13c.33,3.61-.88,7-5.06,10.03-8.83,6.39-15.73,2.25-20.72-4.65Z"/>
      <path class="cls-3" d="M425.98,391.88l-24.63-1.84,3.06-4.75,19.65,1.93-9.67-17.45,3.03-4.71,11.59,22.1,7.94,5.11-3.03,4.71-7.94-5.11Z"/>
    </g>
    <circle class="cls-4" cx="145.32" cy="308.44" r="10.78"/>
    <circle class="cls-4" cx="448.84" cy="308.44" r="10.78"/>
  </g>
</svg>