<?xml version="1.0" encoding="UTF-8"?>
<svg id="Layer_1" data-name="Layer 1" xmlns="http://www.w3.org/2000/svg" viewBox="0 0 595.28 595.28">
  <defs>
    <style>
      .cls-1 {
        fill: #010f12;
      }

      .cls-2 {
        fill: #1bf561;
      }
    </style>
  </defs>
  <rect class="cls-1" x="0" y="0" width="595.28" height="595.28"/>
  <g>
    <path class="cls-2" d="M455.74,258.17c.66,0,1.29.08,1.89.24s1.16.39,1.67.68c.51.3.98.65,1.4,1.07s.78.88,1.07,1.4c.3.52.52,1.07.68,1.67.16.6.24,1.23.24,1.88s-.08,1.3-.24,1.91c-.16.61-.4,1.18-.7,1.7-.3.52-.66,1-1.09,1.43-.42.43-.9.79-1.42,1.09-.52.3-1.08.53-1.69.7-.6.16-1.24.25-1.9.25s-1.29-.08-1.89-.24c-.6-.16-1.16-.39-1.68-.69-.52-.3-.99-.66-1.41-1.08-.42-.42-.78-.89-1.08-1.41-.3-.52-.53-1.08-.69-1.68-.16-.6-.24-1.23-.24-1.89s.08-1.29.25-1.9c.16-.6.4-1.17.7-1.69.3-.52.67-.99,1.09-1.42.43-.42.9-.79,1.43-1.09.52-.3,1.09-.53,1.7-.7s1.24-.24,1.91-.24ZM455.73,259.51c-.54,0-1.05.06-1.53.19-.48.13-.93.31-1.35.55s-.79.53-1.12.87c-.33.34-.62.72-.85,1.14-.23.42-.41.88-.54,1.37-.13.49-.19,1.01-.19,1.56s.06,1.06.19,1.55c.13.49.3.95.54,1.37.23.42.51.8.84,1.14.33.34.7.63,1.1.87.41.24.85.42,1.32.55s.98.19,1.51.19,1.04-.07,1.52-.2c.48-.13.93-.32,1.35-.56.41-.24.79-.54,1.12-.88s.62-.73.86-1.16c.24-.43.42-.89.55-1.39.13-.5.19-1.02.19-1.57s-.06-1.05-.19-1.54c-.12-.49-.3-.94-.53-1.35-.23-.41-.51-.79-.83-1.12-.33-.33-.69-.61-1.1-.85-.41-.23-.85-.41-1.33-.54s-.98-.19-1.52-.19ZM453.05,268.49v-6.51h3.3c.35,0,.67.05.96.14.29.09.53.22.74.39s.36.37.47.61c.11.24.17.51.17.8,0,.25-.04.49-.13.7-.09.21-.21.39-.37.54-.16.15-.35.27-.57.36s-.47.14-.75.14c.51.04.9.37,1.19,1.02l.81,1.8h-1.67l-.81-1.68c-.06-.12-.12-.22-.18-.3-.06-.08-.13-.14-.21-.19-.08-.05-.16-.08-.26-.1-.1-.02-.21-.03-.35-.03h-.8v2.29h-1.54ZM455.97,264.86c.37,0,.66-.07.86-.2.2-.13.31-.32.31-.56s-.1-.42-.3-.54-.49-.19-.87-.19h-1.38v1.49h1.38Z"/>
    <polygon class="cls-2" points="197.87 248.76 179.32 300.13 173.33 316.7 151.61 288.5 157.29 273.59 169.29 288.03 197.87 248.76"/>
    <polygon class="cls-2" points="155.47 307 132.58 338.41 148.17 297.52 155.47 307"/>
    <g>
      <path class="cls-2" d="M187.43,293.23c0-9.36,3.07-19.29,18.2-19.29,14.25,0,18.49,11.4,17.39,23.24h-25.36c.29,5.34,3.65,7.6,8.04,7.6s6.36-1.97,6.8-4.17h10.6c-.66,6.29-4.97,11.91-17.03,11.91-15.35,0-18.64-9.65-18.64-19.29ZM212.71,289.51c-.15-4.82-2.27-7.75-7.6-7.75-5.04,0-7.24,2.92-7.45,7.75h15.06Z"/>
      <path class="cls-2" d="M225.83,260.27h9.94v18.42c1.02-2.05,4.46-4.75,10.67-4.75,11.84,0,14.4,7.31,14.4,17.83v20.17h-10.01v-21.12c0-5.63-1.1-8.4-7.31-8.4s-7.67,2.63-7.67,8.4l-.07,21.12h-9.94v-51.67Z"/>
      <path class="cls-2" d="M263,293.23c0-9.36,3.07-19.29,18.2-19.29,14.25,0,18.49,11.4,17.39,23.24h-25.36c.29,5.34,3.65,7.6,8.04,7.6s6.36-1.97,6.8-4.17h10.6c-.66,6.29-4.97,11.91-17.03,11.91-15.35,0-18.64-9.65-18.64-19.29ZM288.28,289.51c-.15-4.82-2.27-7.75-7.6-7.75-5.04,0-7.24,2.92-7.45,7.75h15.06Z"/>
      <path class="cls-2" d="M301.39,274.52h4.31l2.27,6.14c1.53-3.07,5.12-6.72,12.21-6.72,4.97,0,8.4,1.9,10.38,5.55,1.24-2.27,4.24-5.55,11.11-5.55,10.23,0,12.42,7.38,12.42,15.71v22.29h-10.16v-22.95c0-3.58-.8-6.58-5.48-6.58s-5.63,2.92-5.63,6.58v22.95h-10.16v-22.95c0-3.58-.8-6.58-5.48-6.58s-5.77,3.07-5.77,6.72v22.8h-10.01v-37.42Z"/>
      <rect class="cls-2" x="357.98" y="274.52" width="10.09" height="37.42"/>
      <rect class="cls-2" x="357.98" y="260.27" width="10.09" height="8.76"/>
      <path class="cls-2" d="M370.18,300.83c0-7.09,4.68-10.16,15.64-11.11l9.94-.88c-.07-5.04-1.97-7.16-7.53-7.16s-6.87,2.41-6.87,6.07l-9.94.07c0-7.67,3.14-13.89,16.59-13.89,15.57,0,17.76,6.87,17.76,16.81v21.2h-4.24l-2.27-5.99c-2.19,3.44-6.58,6.58-14.18,6.58-8.33,0-14.91-3.65-14.91-11.69ZM387.5,304.71c6.8,0,8.19-4.24,8.26-9.14l-8.4.95c-5.19.59-6.72,1.83-6.72,3.8,0,2.56,1.97,4.39,6.87,4.39Z"/>
      <path class="cls-2" d="M409.76,260.27h9.94v18.42c1.02-2.05,4.46-4.75,10.67-4.75,11.84,0,14.4,7.31,14.4,17.83v20.17h-10.01v-21.12c0-5.63-1.1-8.4-7.31-8.4s-7.67,2.63-7.67,8.4l-.07,21.12h-9.94v-51.67Z"/>
    </g>
    <g>
      <path class="cls-2" d="M200.55,333.09h9.09v1.33h-7.46v4.51h6.84v1.33h-6.84v4.8h7.46v1.33h-9.09v-13.31Z"/>
      <path class="cls-2" d="M243.06,333.09h2.08l8.19,11.33v-11.33h1.62v13.31h-2l-8.27-11.46v11.46h-1.62v-13.31Z"/>
      <path class="cls-2" d="M289.23,333.09h9.09v1.33h-7.46v4.51h6.84v1.33h-6.84v4.8h7.46v1.33h-9.09v-13.31Z"/>
      <path class="cls-2" d="M331.71,333.09h4.64c4.93,0,5.43,2.31,5.43,4.03,0,3.43-2.7,3.85-5.28,3.85h-1l6.57,5.43h-2.39l-6.34-5.61v5.61h-1.62v-13.31ZM336.49,339.74c3.33,0,3.64-1.39,3.64-2.62s-.37-2.7-3.74-2.7h-3.06v5.32h3.16Z"/>
      <path class="cls-2" d="M375.03,339.74c0-3.66,1.25-6.78,6.11-6.78,4.24,0,5.9,2.22,5.9,4.68h-1.64c-.1-1.79-1.19-3.33-4.26-3.33-3.62,0-4.47,2.41-4.47,5.43s1.02,5.43,4.47,5.43c3.14,0,4.37-1.91,4.37-4.68h-4.86v-1.33h6.45v7.24h-.96l-.35-2.7c-.71,1.68-2.04,2.83-4.74,2.83-4.57,0-6.01-3.12-6.01-6.78Z"/>
      <path class="cls-2" d="M424.51,342.4l-5.34-9.31h1.85l4.35,7.88,4.59-7.88h1.68l-5.51,9.31v3.99h-1.62v-3.99Z"/>
    </g>
  </g>
</svg>