<?xml version="1.0" encoding="UTF-8"?>
<svg id="Layer_1" data-name="Layer 1" xmlns="http://www.w3.org/2000/svg" xmlns:xlink="http://www.w3.org/1999/xlink" viewBox="0 0 682.31 595.28">
  <defs>
    <style>
      .cls-1 {
        fill: none;
      }

      .cls-2 {
        fill: #010f12;
      }

      .cls-3 {
        fill: #1bf561;
      }

      .cls-4 {
        clip-path: url(#clippath);
      }
    </style>
    <clipPath id="clippath">
      <rect class="cls-1" x="61.18" y="26.67" width="559.95" height="541.93"/>
    </clipPath>
  </defs>
  <rect class="cls-2" x="0" y=".08" width="682.31" height="595.11"/>
  <g class="cls-4">
    <g>
      <g id="_Grid_Repeat_" data-name="&amp;lt;Grid Repeat&amp;gt;">
        <g>
          <polygon class="cls-3" points="133.94 130.23 112.5 70.9 105.58 51.76 80.5 84.33 87.06 101.55 100.92 84.87 133.94 130.23"/>
          <polygon class="cls-3" points="84.95 62.96 58.52 26.67 76.52 73.9 84.95 62.96"/>
        </g>
      </g>
      <g id="_Grid_Repeat_-2" data-name="&amp;lt;Grid Repeat&amp;gt;">
        <g>
          <polygon class="cls-3" points="214.83 26.67 193.4 86.01 186.48 105.15 161.4 72.58 167.96 55.36 181.81 72.03 214.83 26.67"/>
          <polygon class="cls-3" points="165.85 93.94 139.41 130.23 157.42 83 165.85 93.94"/>
        </g>
      </g>
      <g id="_Grid_Repeat_-3" data-name="&amp;lt;Grid Repeat&amp;gt;">
        <g>
          <polygon class="cls-3" points="295.73 130.23 274.29 70.9 267.38 51.76 242.29 84.33 248.85 101.55 262.71 84.87 295.73 130.23"/>
          <polygon class="cls-3" points="246.75 62.96 220.31 26.67 238.31 73.9 246.75 62.96"/>
        </g>
      </g>
      <g id="_Grid_Repeat_-4" data-name="&amp;lt;Grid Repeat&amp;gt;">
        <g>
          <polygon class="cls-3" points="376.63 26.67 355.19 86.01 348.27 105.15 323.19 72.58 329.75 55.36 343.61 72.03 376.63 26.67"/>
          <polygon class="cls-3" points="327.64 93.94 301.21 130.23 319.21 83 327.64 93.94"/>
        </g>
      </g>
      <g id="_Grid_Repeat_-5" data-name="&amp;lt;Grid Repeat&amp;gt;">
        <g>
          <polygon class="cls-3" points="457.52 130.23 436.09 70.9 429.17 51.76 404.09 84.33 410.65 101.55 424.5 84.87 457.52 130.23"/>
          <polygon class="cls-3" points="408.54 62.96 382.1 26.67 400.11 73.9 408.54 62.96"/>
        </g>
      </g>
      <g id="_Grid_Repeat_-6" data-name="&amp;lt;Grid Repeat&amp;gt;">
        <g>
          <polygon class="cls-3" points="538.42 26.67 516.98 86.01 510.07 105.15 484.98 72.58 491.54 55.36 505.4 72.03 538.42 26.67"/>
          <polygon class="cls-3" points="489.43 93.94 463 130.23 481 83 489.43 93.94"/>
        </g>
      </g>
      <g id="_Grid_Repeat_-7" data-name="&amp;lt;Grid Repeat&amp;gt;">
        <g>
          <polygon class="cls-3" points="619.31 130.23 597.88 70.9 590.96 51.76 565.88 84.33 572.44 101.55 586.3 84.87 619.31 130.23"/>
          <polygon class="cls-3" points="570.33 62.96 543.9 26.67 561.9 73.9 570.33 62.96"/>
        </g>
      </g>
      <g id="_Grid_Repeat_-8" data-name="&amp;lt;Grid Repeat&amp;gt;">
        <g>
          <polygon class="cls-3" points="133.94 238.93 112.5 179.6 105.58 160.46 80.5 193.03 87.06 210.25 100.92 193.57 133.94 238.93"/>
          <polygon class="cls-3" points="84.95 171.66 58.52 135.38 76.52 182.61 84.95 171.66"/>
        </g>
      </g>
      <g id="_Grid_Repeat_-9" data-name="&amp;lt;Grid Repeat&amp;gt;">
        <g>
          <polygon class="cls-3" points="214.83 135.38 193.4 194.71 186.48 213.85 161.4 181.28 167.96 164.06 181.81 180.74 214.83 135.38"/>
          <polygon class="cls-3" points="165.85 202.65 139.41 238.93 157.42 191.7 165.85 202.65"/>
        </g>
      </g>
      <g id="_Grid_Repeat_-10" data-name="&amp;lt;Grid Repeat&amp;gt;">
        <g>
          <polygon class="cls-3" points="295.73 238.93 274.29 179.6 267.38 160.46 242.29 193.03 248.85 210.25 262.71 193.57 295.73 238.93"/>
          <polygon class="cls-3" points="246.75 171.66 220.31 135.38 238.31 182.61 246.75 171.66"/>
        </g>
      </g>
      <g id="_Grid_Repeat_-11" data-name="&amp;lt;Grid Repeat&amp;gt;">
        <g>
          <polygon class="cls-3" points="376.63 135.38 355.19 194.71 348.27 213.85 323.19 181.28 329.75 164.06 343.61 180.74 376.63 135.38"/>
          <polygon class="cls-3" points="327.64 202.65 301.21 238.93 319.21 191.7 327.64 202.65"/>
        </g>
      </g>
      <g id="_Grid_Repeat_-12" data-name="&amp;lt;Grid Repeat&amp;gt;">
        <g>
          <polygon class="cls-3" points="457.52 238.93 436.09 179.6 429.17 160.46 404.09 193.03 410.65 210.25 424.5 193.57 457.52 238.93"/>
          <polygon class="cls-3" points="408.54 171.66 382.1 135.38 400.11 182.61 408.54 171.66"/>
        </g>
      </g>
      <g id="_Grid_Repeat_-13" data-name="&amp;lt;Grid Repeat&amp;gt;">
        <g>
          <polygon class="cls-3" points="538.42 135.38 516.98 194.71 510.07 213.85 484.98 181.28 491.54 164.06 505.4 180.74 538.42 135.38"/>
          <polygon class="cls-3" points="489.43 202.65 463 238.93 481 191.7 489.43 202.65"/>
        </g>
      </g>
      <g id="_Grid_Repeat_-14" data-name="&amp;lt;Grid Repeat&amp;gt;">
        <g>
          <polygon class="cls-3" points="619.31 238.93 597.88 179.6 590.96 160.46 565.88 193.03 572.44 210.25 586.3 193.57 619.31 238.93"/>
          <polygon class="cls-3" points="570.33 171.66 543.9 135.38 561.9 182.61 570.33 171.66"/>
        </g>
      </g>
      <g id="_Grid_Repeat_-15" data-name="&amp;lt;Grid Repeat&amp;gt;">
        <g>
          <polygon class="cls-3" points="133.94 347.64 112.5 288.3 105.58 269.16 80.5 301.73 87.06 318.95 100.92 302.28 133.94 347.64"/>
          <polygon class="cls-3" points="84.95 280.37 58.52 244.08 76.52 291.31 84.95 280.37"/>
        </g>
      </g>
      <g id="_Grid_Repeat_-16" data-name="&amp;lt;Grid Repeat&amp;gt;">
        <g>
          <polygon class="cls-3" points="214.83 244.08 193.4 303.41 186.48 322.55 161.4 289.98 167.96 272.76 181.81 289.44 214.83 244.08"/>
          <polygon class="cls-3" points="165.85 311.35 139.41 347.64 157.42 300.41 165.85 311.35"/>
        </g>
      </g>
      <g id="_Grid_Repeat_-17" data-name="&amp;lt;Grid Repeat&amp;gt;">
        <g>
          <polygon class="cls-3" points="295.73 347.64 274.29 288.3 267.38 269.16 242.29 301.73 248.85 318.95 262.71 302.28 295.73 347.64"/>
          <polygon class="cls-3" points="246.75 280.37 220.31 244.08 238.31 291.31 246.75 280.37"/>
        </g>
      </g>
      <g id="_Grid_Repeat_-18" data-name="&amp;lt;Grid Repeat&amp;gt;">
        <g>
          <polygon class="cls-3" points="376.63 244.08 355.19 303.41 348.27 322.55 323.19 289.98 329.75 272.76 343.61 289.44 376.63 244.08"/>
          <polygon class="cls-3" points="327.64 311.35 301.21 347.64 319.21 300.41 327.64 311.35"/>
        </g>
      </g>
      <g id="_Grid_Repeat_-19" data-name="&amp;lt;Grid Repeat&amp;gt;">
        <g>
          <polygon class="cls-3" points="457.52 347.64 436.09 288.3 429.17 269.16 404.09 301.73 410.65 318.95 424.5 302.28 457.52 347.64"/>
          <polygon class="cls-3" points="408.54 280.37 382.1 244.08 400.11 291.31 408.54 280.37"/>
        </g>
      </g>
      <g id="_Grid_Repeat_-20" data-name="&amp;lt;Grid Repeat&amp;gt;">
        <g>
          <polygon class="cls-3" points="538.42 244.08 516.98 303.41 510.07 322.55 484.98 289.98 491.54 272.76 505.4 289.44 538.42 244.08"/>
          <polygon class="cls-3" points="489.43 311.35 463 347.64 481 300.41 489.43 311.35"/>
        </g>
      </g>
      <g id="_Grid_Repeat_-21" data-name="&amp;lt;Grid Repeat&amp;gt;">
        <g>
          <polygon class="cls-3" points="619.31 347.64 597.88 288.3 590.96 269.16 565.88 301.73 572.44 318.95 586.3 302.28 619.31 347.64"/>
          <polygon class="cls-3" points="570.33 280.37 543.9 244.08 561.9 291.31 570.33 280.37"/>
        </g>
      </g>
      <g id="_Grid_Repeat_-22" data-name="&amp;lt;Grid Repeat&amp;gt;">
        <g>
          <polygon class="cls-3" points="133.94 456.34 112.5 397.01 105.58 377.87 80.5 410.44 87.06 427.66 100.92 410.98 133.94 456.34"/>
          <polygon class="cls-3" points="84.95 389.07 58.52 352.78 76.52 400.01 84.95 389.07"/>
        </g>
      </g>
      <g id="_Grid_Repeat_-23" data-name="&amp;lt;Grid Repeat&amp;gt;">
        <g>
          <polygon class="cls-3" points="214.83 352.78 193.4 412.12 186.48 431.26 161.4 398.69 167.96 381.47 181.81 398.14 214.83 352.78"/>
          <polygon class="cls-3" points="165.85 420.05 139.41 456.34 157.42 409.11 165.85 420.05"/>
        </g>
      </g>
      <g id="_Grid_Repeat_-24" data-name="&amp;lt;Grid Repeat&amp;gt;">
        <g>
          <polygon class="cls-3" points="295.73 456.34 274.29 397.01 267.38 377.87 242.29 410.44 248.85 427.66 262.71 410.98 295.73 456.34"/>
          <polygon class="cls-3" points="246.75 389.07 220.31 352.78 238.31 400.01 246.75 389.07"/>
        </g>
      </g>
      <g id="_Grid_Repeat_-25" data-name="&amp;lt;Grid Repeat&amp;gt;">
        <g>
          <polygon class="cls-3" points="376.63 352.78 355.19 412.12 348.27 431.26 323.19 398.69 329.75 381.47 343.61 398.14 376.63 352.78"/>
          <polygon class="cls-3" points="327.64 420.05 301.21 456.34 319.21 409.11 327.64 420.05"/>
        </g>
      </g>
      <g id="_Grid_Repeat_-26" data-name="&amp;lt;Grid Repeat&amp;gt;">
        <g>
          <polygon class="cls-3" points="457.52 456.34 436.09 397.01 429.17 377.87 404.09 410.44 410.65 427.66 424.5 410.98 457.52 456.34"/>
          <polygon class="cls-3" points="408.54 389.07 382.1 352.78 400.11 400.01 408.54 389.07"/>
        </g>
      </g>
      <g id="_Grid_Repeat_-27" data-name="&amp;lt;Grid Repeat&amp;gt;">
        <g>
          <polygon class="cls-3" points="538.42 352.78 516.98 412.12 510.07 431.26 484.98 398.69 491.54 381.47 505.4 398.14 538.42 352.78"/>
          <polygon class="cls-3" points="489.43 420.05 463 456.34 481 409.11 489.43 420.05"/>
        </g>
      </g>
      <g id="_Grid_Repeat_-28" data-name="&amp;lt;Grid Repeat&amp;gt;">
        <g>
          <polygon class="cls-3" points="619.31 456.34 597.88 397.01 590.96 377.87 565.88 410.44 572.44 427.66 586.3 410.98 619.31 456.34"/>
          <polygon class="cls-3" points="570.33 389.07 543.9 352.78 561.9 400.01 570.33 389.07"/>
        </g>
      </g>
      <g id="_Grid_Repeat_-29" data-name="&amp;lt;Grid Repeat&amp;gt;">
        <g>
          <polygon class="cls-3" points="133.94 565.04 112.5 505.71 105.58 486.57 80.5 519.14 87.06 536.36 100.92 519.68 133.94 565.04"/>
          <polygon class="cls-3" points="84.95 497.77 58.52 461.49 76.52 508.72 84.95 497.77"/>
        </g>
      </g>
      <g id="_Grid_Repeat_-30" data-name="&amp;lt;Grid Repeat&amp;gt;">
        <g>
          <polygon class="cls-3" points="214.83 461.49 193.4 520.82 186.48 539.96 161.4 507.39 167.96 490.17 181.81 506.85 214.83 461.49"/>
          <polygon class="cls-3" points="165.85 528.76 139.41 565.04 157.42 517.81 165.85 528.76"/>
        </g>
      </g>
      <g id="_Grid_Repeat_-31" data-name="&amp;lt;Grid Repeat&amp;gt;">
        <g>
          <polygon class="cls-3" points="295.73 565.04 274.29 505.71 267.38 486.57 242.29 519.14 248.85 536.36 262.71 519.68 295.73 565.04"/>
          <polygon class="cls-3" points="246.75 497.77 220.31 461.49 238.31 508.72 246.75 497.77"/>
        </g>
      </g>
      <g id="_Grid_Repeat_-32" data-name="&amp;lt;Grid Repeat&amp;gt;">
        <g>
          <polygon class="cls-3" points="376.63 461.49 355.19 520.82 348.27 539.96 323.19 507.39 329.75 490.17 343.61 506.85 376.63 461.49"/>
          <polygon class="cls-3" points="327.64 528.76 301.21 565.04 319.21 517.81 327.64 528.76"/>
        </g>
      </g>
      <g id="_Grid_Repeat_-33" data-name="&amp;lt;Grid Repeat&amp;gt;">
        <g>
          <polygon class="cls-3" points="457.52 565.04 436.09 505.71 429.17 486.57 404.09 519.14 410.65 536.36 424.5 519.68 457.52 565.04"/>
          <polygon class="cls-3" points="408.54 497.77 382.1 461.49 400.11 508.72 408.54 497.77"/>
        </g>
      </g>
      <g id="_Grid_Repeat_-34" data-name="&amp;lt;Grid Repeat&amp;gt;">
        <g>
          <polygon class="cls-3" points="538.42 461.49 516.98 520.82 510.07 539.96 484.98 507.39 491.54 490.17 505.4 506.85 538.42 461.49"/>
          <polygon class="cls-3" points="489.43 528.76 463 565.04 481 517.81 489.43 528.76"/>
        </g>
      </g>
      <g id="_Grid_Repeat_-35" data-name="&amp;lt;Grid Repeat&amp;gt;">
        <g>
          <polygon class="cls-3" points="619.31 565.04 597.88 505.71 590.96 486.57 565.88 519.14 572.44 536.36 586.3 519.68 619.31 565.04"/>
          <polygon class="cls-3" points="570.33 497.77 543.9 461.49 561.9 508.72 570.33 497.77"/>
        </g>
      </g>
    </g>
  </g>
</svg>