<?xml version="1.0" encoding="UTF-8"?>
<svg id="Layer_1" data-name="Layer 1" xmlns="http://www.w3.org/2000/svg" xmlns:xlink="http://www.w3.org/1999/xlink" viewBox="0 0 682.31 595.28">
  <defs>
    <style>
      .cls-1, .cls-2 {
        fill: none;
      }

      .cls-3 {
        fill: #010f12;
      }

      .cls-2 {
        stroke: #1bf561;
        stroke-miterlimit: 10;
        stroke-width: .75px;
      }

      .cls-4 {
        clip-path: url(#clippath);
      }
    </style>
    <clipPath id="clippath">
      <rect class="cls-1" width="681.72" height="594.53"/>
    </clipPath>
  </defs>
  <rect class="cls-3" x="0" y=".08" width="682.31" height="595.11"/>
  <g class="cls-4">
    <g>
      <g id="_Grid_Repeat_" data-name="&amp;lt;Grid Repeat&amp;gt;">
        <g>
          <polygon class="cls-2" points="62.36 -5.65 40.92 53.68 34 72.82 8.92 40.25 15.48 23.03 29.34 39.71 62.36 -5.65"/>
          <polygon class="cls-2" points="13.37 61.62 -13.06 97.91 4.94 50.68 13.37 61.62"/>
        </g>
      </g>
      <g id="_Grid_Repeat_-2" data-name="&amp;lt;Grid Repeat&amp;gt;">
        <g>
          <polygon class="cls-2" points="145.85 -5.65 124.42 53.68 117.5 72.82 92.42 40.25 98.98 23.03 112.83 39.71 145.85 -5.65"/>
          <polygon class="cls-2" points="96.87 61.62 70.44 97.91 88.44 50.68 96.87 61.62"/>
        </g>
      </g>
      <g id="_Grid_Repeat_-3" data-name="&amp;lt;Grid Repeat&amp;gt;">
        <g>
          <polygon class="cls-2" points="229.35 -5.65 207.91 53.68 201 72.82 175.91 40.25 182.47 23.03 196.33 39.71 229.35 -5.65"/>
          <polygon class="cls-2" points="180.37 61.62 153.93 97.91 171.93 50.68 180.37 61.62"/>
        </g>
      </g>
      <g id="_Grid_Repeat_-4" data-name="&amp;lt;Grid Repeat&amp;gt;">
        <g>
          <polygon class="cls-2" points="312.85 -5.65 291.41 53.68 284.49 72.82 259.41 40.25 265.97 23.03 279.83 39.71 312.85 -5.65"/>
          <polygon class="cls-2" points="263.86 61.62 237.43 97.91 255.43 50.68 263.86 61.62"/>
        </g>
      </g>
      <g id="_Grid_Repeat_-5" data-name="&amp;lt;Grid Repeat&amp;gt;">
        <g>
          <polygon class="cls-2" points="396.34 -5.65 374.9 53.68 367.99 72.82 342.9 40.25 349.47 23.03 363.32 39.71 396.34 -5.65"/>
          <polygon class="cls-2" points="347.36 61.62 320.92 97.91 338.93 50.68 347.36 61.62"/>
        </g>
      </g>
      <g id="_Grid_Repeat_-6" data-name="&amp;lt;Grid Repeat&amp;gt;">
        <g>
          <polygon class="cls-2" points="479.84 -5.65 458.4 53.68 451.48 72.82 426.4 40.25 432.96 23.03 446.82 39.71 479.84 -5.65"/>
          <polygon class="cls-2" points="430.85 61.62 404.42 97.91 422.42 50.68 430.85 61.62"/>
        </g>
      </g>
      <g id="_Grid_Repeat_-7" data-name="&amp;lt;Grid Repeat&amp;gt;">
        <g>
          <polygon class="cls-2" points="563.33 -5.65 541.9 53.68 534.98 72.82 509.9 40.25 516.46 23.03 530.31 39.71 563.33 -5.65"/>
          <polygon class="cls-2" points="514.35 61.62 487.92 97.91 505.92 50.68 514.35 61.62"/>
        </g>
      </g>
      <g id="_Grid_Repeat_-8" data-name="&amp;lt;Grid Repeat&amp;gt;">
        <g>
          <polygon class="cls-2" points="646.83 -5.65 625.39 53.68 618.48 72.82 593.39 40.25 599.95 23.03 613.81 39.71 646.83 -5.65"/>
          <polygon class="cls-2" points="597.85 61.62 571.41 97.91 589.41 50.68 597.85 61.62"/>
        </g>
      </g>
      <g id="_Grid_Repeat_-9" data-name="&amp;lt;Grid Repeat&amp;gt;">
        <g>
          <polygon class="cls-2" points="730.33 -5.65 708.89 53.68 701.97 72.82 676.89 40.25 683.45 23.03 697.31 39.71 730.33 -5.65"/>
          <polygon class="cls-2" points="681.34 61.62 654.91 97.91 672.91 50.68 681.34 61.62"/>
        </g>
      </g>
      <g id="_Grid_Repeat_-10" data-name="&amp;lt;Grid Repeat&amp;gt;">
        <g>
          <polygon class="cls-2" points="62.36 107.9 40.92 167.23 34 186.37 8.92 153.8 15.48 136.58 29.34 153.26 62.36 107.9"/>
          <polygon class="cls-2" points="13.37 175.17 -13.06 211.45 4.94 164.22 13.37 175.17"/>
        </g>
      </g>
      <g id="_Grid_Repeat_-11" data-name="&amp;lt;Grid Repeat&amp;gt;">
        <g>
          <polygon class="cls-2" points="145.85 107.9 124.42 167.23 117.5 186.37 92.42 153.8 98.98 136.58 112.83 153.26 145.85 107.9"/>
          <polygon class="cls-2" points="96.87 175.17 70.44 211.45 88.44 164.22 96.87 175.17"/>
        </g>
      </g>
      <g id="_Grid_Repeat_-12" data-name="&amp;lt;Grid Repeat&amp;gt;">
        <g>
          <polygon class="cls-2" points="229.35 107.9 207.91 167.23 201 186.37 175.91 153.8 182.47 136.58 196.33 153.26 229.35 107.9"/>
          <polygon class="cls-2" points="180.37 175.17 153.93 211.45 171.93 164.22 180.37 175.17"/>
        </g>
      </g>
      <g id="_Grid_Repeat_-13" data-name="&amp;lt;Grid Repeat&amp;gt;">
        <g>
          <polygon class="cls-2" points="312.85 107.9 291.41 167.23 284.49 186.37 259.41 153.8 265.97 136.58 279.83 153.26 312.85 107.9"/>
          <polygon class="cls-2" points="263.86 175.17 237.43 211.45 255.43 164.22 263.86 175.17"/>
        </g>
      </g>
      <g id="_Grid_Repeat_-14" data-name="&amp;lt;Grid Repeat&amp;gt;">
        <g>
          <polygon class="cls-2" points="396.34 107.9 374.9 167.23 367.99 186.37 342.9 153.8 349.47 136.58 363.32 153.26 396.34 107.9"/>
          <polygon class="cls-2" points="347.36 175.17 320.92 211.45 338.93 164.22 347.36 175.17"/>
        </g>
      </g>
      <g id="_Grid_Repeat_-15" data-name="&amp;lt;Grid Repeat&amp;gt;">
        <g>
          <polygon class="cls-2" points="479.84 107.9 458.4 167.23 451.48 186.37 426.4 153.8 432.96 136.58 446.82 153.26 479.84 107.9"/>
          <polygon class="cls-2" points="430.85 175.17 404.42 211.45 422.42 164.22 430.85 175.17"/>
        </g>
      </g>
      <g id="_Grid_Repeat_-16" data-name="&amp;lt;Grid Repeat&amp;gt;">
        <g>
          <polygon class="cls-2" points="563.33 107.9 541.9 167.23 534.98 186.37 509.9 153.8 516.46 136.58 530.31 153.26 563.33 107.9"/>
          <polygon class="cls-2" points="514.35 175.17 487.92 211.45 505.92 164.22 514.35 175.17"/>
        </g>
      </g>
      <g id="_Grid_Repeat_-17" data-name="&amp;lt;Grid Repeat&amp;gt;">
        <g>
          <polygon class="cls-2" points="646.83 107.9 625.39 167.23 618.48 186.37 593.39 153.8 599.95 136.58 613.81 153.26 646.83 107.9"/>
          <polygon class="cls-2" points="597.85 175.17 571.41 211.45 589.41 164.22 597.85 175.17"/>
        </g>
      </g>
      <g id="_Grid_Repeat_-18" data-name="&amp;lt;Grid Repeat&amp;gt;">
        <g>
          <polygon class="cls-2" points="730.33 107.9 708.89 167.23 701.97 186.37 676.89 153.8 683.45 136.58 697.31 153.26 730.33 107.9"/>
          <polygon class="cls-2" points="681.34 175.17 654.91 211.45 672.91 164.22 681.34 175.17"/>
        </g>
      </g>
      <g id="_Grid_Repeat_-19" data-name="&amp;lt;Grid Repeat&amp;gt;">
        <g>
          <polygon class="cls-2" points="62.36 221.44 40.92 280.78 34 299.92 8.92 267.35 15.48 250.13 29.34 266.8 62.36 221.44"/>
          <polygon class="cls-2" points="13.37 288.71 -13.06 325 4.94 277.77 13.37 288.71"/>
        </g>
      </g>
      <g id="_Grid_Repeat_-20" data-name="&amp;lt;Grid Repeat&amp;gt;">
        <g>
          <polygon class="cls-2" points="145.85 221.44 124.42 280.78 117.5 299.92 92.42 267.35 98.98 250.13 112.83 266.8 145.85 221.44"/>
          <polygon class="cls-2" points="96.87 288.71 70.44 325 88.44 277.77 96.87 288.71"/>
        </g>
      </g>
      <g id="_Grid_Repeat_-21" data-name="&amp;lt;Grid Repeat&amp;gt;">
        <g>
          <polygon class="cls-2" points="229.35 221.44 207.91 280.78 201 299.92 175.91 267.35 182.47 250.13 196.33 266.8 229.35 221.44"/>
          <polygon class="cls-2" points="180.37 288.71 153.93 325 171.93 277.77 180.37 288.71"/>
        </g>
      </g>
      <g id="_Grid_Repeat_-22" data-name="&amp;lt;Grid Repeat&amp;gt;">
        <g>
          <polygon class="cls-2" points="312.85 221.44 291.41 280.78 284.49 299.92 259.41 267.35 265.97 250.13 279.83 266.8 312.85 221.44"/>
          <polygon class="cls-2" points="263.86 288.71 237.43 325 255.43 277.77 263.86 288.71"/>
        </g>
      </g>
      <g id="_Grid_Repeat_-23" data-name="&amp;lt;Grid Repeat&amp;gt;">
        <g>
          <polygon class="cls-2" points="396.34 221.44 374.9 280.78 367.99 299.92 342.9 267.35 349.47 250.13 363.32 266.8 396.34 221.44"/>
          <polygon class="cls-2" points="347.36 288.71 320.92 325 338.93 277.77 347.36 288.71"/>
        </g>
      </g>
      <g id="_Grid_Repeat_-24" data-name="&amp;lt;Grid Repeat&amp;gt;">
        <g>
          <polygon class="cls-2" points="479.84 221.44 458.4 280.78 451.48 299.92 426.4 267.35 432.96 250.13 446.82 266.8 479.84 221.44"/>
          <polygon class="cls-2" points="430.85 288.71 404.42 325 422.42 277.77 430.85 288.71"/>
        </g>
      </g>
      <g id="_Grid_Repeat_-25" data-name="&amp;lt;Grid Repeat&amp;gt;">
        <g>
          <polygon class="cls-2" points="563.33 221.44 541.9 280.78 534.98 299.92 509.9 267.35 516.46 250.13 530.31 266.8 563.33 221.44"/>
          <polygon class="cls-2" points="514.35 288.71 487.92 325 505.92 277.77 514.35 288.71"/>
        </g>
      </g>
      <g id="_Grid_Repeat_-26" data-name="&amp;lt;Grid Repeat&amp;gt;">
        <g>
          <polygon class="cls-2" points="646.83 221.44 625.39 280.78 618.48 299.92 593.39 267.35 599.95 250.13 613.81 266.8 646.83 221.44"/>
          <polygon class="cls-2" points="597.85 288.71 571.41 325 589.41 277.77 597.85 288.71"/>
        </g>
      </g>
      <g id="_Grid_Repeat_-27" data-name="&amp;lt;Grid Repeat&amp;gt;">
        <g>
          <polygon class="cls-2" points="730.33 221.44 708.89 280.78 701.97 299.92 676.89 267.35 683.45 250.13 697.31 266.8 730.33 221.44"/>
          <polygon class="cls-2" points="681.34 288.71 654.91 325 672.91 277.77 681.34 288.71"/>
        </g>
      </g>
      <g id="_Grid_Repeat_-28" data-name="&amp;lt;Grid Repeat&amp;gt;">
        <g>
          <polygon class="cls-2" points="62.36 334.99 40.92 394.33 34 413.47 8.92 380.9 15.48 363.68 29.34 380.35 62.36 334.99"/>
          <polygon class="cls-2" points="13.37 402.26 -13.06 438.55 4.94 391.32 13.37 402.26"/>
        </g>
      </g>
      <g id="_Grid_Repeat_-29" data-name="&amp;lt;Grid Repeat&amp;gt;">
        <g>
          <polygon class="cls-2" points="145.85 334.99 124.42 394.33 117.5 413.47 92.42 380.9 98.98 363.68 112.83 380.35 145.85 334.99"/>
          <polygon class="cls-2" points="96.87 402.26 70.44 438.55 88.44 391.32 96.87 402.26"/>
        </g>
      </g>
      <g id="_Grid_Repeat_-30" data-name="&amp;lt;Grid Repeat&amp;gt;">
        <g>
          <polygon class="cls-2" points="229.35 334.99 207.91 394.33 201 413.47 175.91 380.9 182.47 363.68 196.33 380.35 229.35 334.99"/>
          <polygon class="cls-2" points="180.37 402.26 153.93 438.55 171.93 391.32 180.37 402.26"/>
        </g>
      </g>
      <g id="_Grid_Repeat_-31" data-name="&amp;lt;Grid Repeat&amp;gt;">
        <g>
          <polygon class="cls-2" points="312.85 334.99 291.41 394.33 284.49 413.47 259.41 380.9 265.97 363.68 279.83 380.35 312.85 334.99"/>
          <polygon class="cls-2" points="263.86 402.26 237.43 438.55 255.43 391.32 263.86 402.26"/>
        </g>
      </g>
      <g id="_Grid_Repeat_-32" data-name="&amp;lt;Grid Repeat&amp;gt;">
        <g>
          <polygon class="cls-2" points="396.34 334.99 374.9 394.33 367.99 413.47 342.9 380.9 349.47 363.68 363.32 380.35 396.34 334.99"/>
          <polygon class="cls-2" points="347.36 402.26 320.92 438.55 338.93 391.32 347.36 402.26"/>
        </g>
      </g>
      <g id="_Grid_Repeat_-33" data-name="&amp;lt;Grid Repeat&amp;gt;">
        <g>
          <polygon class="cls-2" points="479.84 334.99 458.4 394.33 451.48 413.47 426.4 380.9 432.96 363.68 446.82 380.35 479.84 334.99"/>
          <polygon class="cls-2" points="430.85 402.26 404.42 438.55 422.42 391.32 430.85 402.26"/>
        </g>
      </g>
      <g id="_Grid_Repeat_-34" data-name="&amp;lt;Grid Repeat&amp;gt;">
        <g>
          <polygon class="cls-2" points="563.33 334.99 541.9 394.33 534.98 413.47 509.9 380.9 516.46 363.68 530.31 380.35 563.33 334.99"/>
          <polygon class="cls-2" points="514.35 402.26 487.92 438.55 505.92 391.32 514.35 402.26"/>
        </g>
      </g>
      <g id="_Grid_Repeat_-35" data-name="&amp;lt;Grid Repeat&amp;gt;">
        <g>
          <polygon class="cls-2" points="646.83 334.99 625.39 394.33 618.48 413.47 593.39 380.9 599.95 363.68 613.81 380.35 646.83 334.99"/>
          <polygon class="cls-2" points="597.85 402.26 571.41 438.55 589.41 391.32 597.85 402.26"/>
        </g>
      </g>
      <g id="_Grid_Repeat_-36" data-name="&amp;lt;Grid Repeat&amp;gt;">
        <g>
          <polygon class="cls-2" points="730.33 334.99 708.89 394.33 701.97 413.47 676.89 380.9 683.45 363.68 697.31 380.35 730.33 334.99"/>
          <polygon class="cls-2" points="681.34 402.26 654.91 438.55 672.91 391.32 681.34 402.26"/>
        </g>
      </g>
      <g id="_Grid_Repeat_-37" data-name="&amp;lt;Grid Repeat&amp;gt;">
        <g>
          <polygon class="cls-2" points="62.36 448.54 40.92 507.87 34 527.01 8.92 494.44 15.48 477.22 29.34 493.9 62.36 448.54"/>
          <polygon class="cls-2" points="13.37 515.81 -13.06 552.1 4.94 504.87 13.37 515.81"/>
        </g>
      </g>
      <g id="_Grid_Repeat_-38" data-name="&amp;lt;Grid Repeat&amp;gt;">
        <g>
          <polygon class="cls-2" points="145.85 448.54 124.42 507.87 117.5 527.01 92.42 494.44 98.98 477.22 112.83 493.9 145.85 448.54"/>
          <polygon class="cls-2" points="96.87 515.81 70.44 552.1 88.44 504.87 96.87 515.81"/>
        </g>
      </g>
      <g id="_Grid_Repeat_-39" data-name="&amp;lt;Grid Repeat&amp;gt;">
        <g>
          <polygon class="cls-2" points="229.35 448.54 207.91 507.87 201 527.01 175.91 494.44 182.47 477.22 196.33 493.9 229.35 448.54"/>
          <polygon class="cls-2" points="180.37 515.81 153.93 552.1 171.93 504.87 180.37 515.81"/>
        </g>
      </g>
      <g id="_Grid_Repeat_-40" data-name="&amp;lt;Grid Repeat&amp;gt;">
        <g>
          <polygon class="cls-2" points="312.85 448.54 291.41 507.87 284.49 527.01 259.41 494.44 265.97 477.22 279.83 493.9 312.85 448.54"/>
          <polygon class="cls-2" points="263.86 515.81 237.43 552.1 255.43 504.87 263.86 515.81"/>
        </g>
      </g>
      <g id="_Grid_Repeat_-41" data-name="&amp;lt;Grid Repeat&amp;gt;">
        <g>
          <polygon class="cls-2" points="396.34 448.54 374.9 507.87 367.99 527.01 342.9 494.44 349.47 477.22 363.32 493.9 396.34 448.54"/>
          <polygon class="cls-2" points="347.36 515.81 320.92 552.1 338.93 504.87 347.36 515.81"/>
        </g>
      </g>
      <g id="_Grid_Repeat_-42" data-name="&amp;lt;Grid Repeat&amp;gt;">
        <g>
          <polygon class="cls-2" points="479.84 448.54 458.4 507.87 451.48 527.01 426.4 494.44 432.96 477.22 446.82 493.9 479.84 448.54"/>
          <polygon class="cls-2" points="430.85 515.81 404.42 552.1 422.42 504.87 430.85 515.81"/>
        </g>
      </g>
      <g id="_Grid_Repeat_-43" data-name="&amp;lt;Grid Repeat&amp;gt;">
        <g>
          <polygon class="cls-2" points="563.33 448.54 541.9 507.87 534.98 527.01 509.9 494.44 516.46 477.22 530.31 493.9 563.33 448.54"/>
          <polygon class="cls-2" points="514.35 515.81 487.92 552.1 505.92 504.87 514.35 515.81"/>
        </g>
      </g>
      <g id="_Grid_Repeat_-44" data-name="&amp;lt;Grid Repeat&amp;gt;">
        <g>
          <polygon class="cls-2" points="646.83 448.54 625.39 507.87 618.48 527.01 593.39 494.44 599.95 477.22 613.81 493.9 646.83 448.54"/>
          <polygon class="cls-2" points="597.85 515.81 571.41 552.1 589.41 504.87 597.85 515.81"/>
        </g>
      </g>
      <g id="_Grid_Repeat_-45" data-name="&amp;lt;Grid Repeat&amp;gt;">
        <g>
          <polygon class="cls-2" points="730.33 448.54 708.89 507.87 701.97 527.01 676.89 494.44 683.45 477.22 697.31 493.9 730.33 448.54"/>
          <polygon class="cls-2" points="681.34 515.81 654.91 552.1 672.91 504.87 681.34 515.81"/>
        </g>
      </g>
      <g id="_Grid_Repeat_-46" data-name="&amp;lt;Grid Repeat&amp;gt;">
        <polygon class="cls-2" points="62.36 562.09 40.92 621.42 34 640.56 8.92 607.99 15.48 590.77 29.34 607.45 62.36 562.09"/>
      </g>
      <g id="_Grid_Repeat_-47" data-name="&amp;lt;Grid Repeat&amp;gt;">
        <polygon class="cls-2" points="145.85 562.09 124.42 621.42 117.5 640.56 92.42 607.99 98.98 590.77 112.83 607.45 145.85 562.09"/>
      </g>
      <g id="_Grid_Repeat_-48" data-name="&amp;lt;Grid Repeat&amp;gt;">
        <polygon class="cls-2" points="229.35 562.09 207.91 621.42 201 640.56 175.91 607.99 182.47 590.77 196.33 607.45 229.35 562.09"/>
      </g>
      <g id="_Grid_Repeat_-49" data-name="&amp;lt;Grid Repeat&amp;gt;">
        <polygon class="cls-2" points="312.85 562.09 291.41 621.42 284.49 640.56 259.41 607.99 265.97 590.77 279.83 607.45 312.85 562.09"/>
      </g>
      <g id="_Grid_Repeat_-50" data-name="&amp;lt;Grid Repeat&amp;gt;">
        <polygon class="cls-2" points="396.34 562.09 374.9 621.42 367.99 640.56 342.9 607.99 349.47 590.77 363.32 607.45 396.34 562.09"/>
      </g>
      <g id="_Grid_Repeat_-51" data-name="&amp;lt;Grid Repeat&amp;gt;">
        <polygon class="cls-2" points="479.84 562.09 458.4 621.42 451.48 640.56 426.4 607.99 432.96 590.77 446.82 607.45 479.84 562.09"/>
      </g>
      <g id="_Grid_Repeat_-52" data-name="&amp;lt;Grid Repeat&amp;gt;">
        <polygon class="cls-2" points="563.33 562.09 541.9 621.42 534.98 640.56 509.9 607.99 516.46 590.77 530.31 607.45 563.33 562.09"/>
      </g>
      <g id="_Grid_Repeat_-53" data-name="&amp;lt;Grid Repeat&amp;gt;">
        <polygon class="cls-2" points="646.83 562.09 625.39 621.42 618.48 640.56 593.39 607.99 599.95 590.77 613.81 607.45 646.83 562.09"/>
      </g>
      <g id="_Grid_Repeat_-54" data-name="&amp;lt;Grid Repeat&amp;gt;">
        <polygon class="cls-2" points="730.33 562.09 708.89 621.42 701.97 640.56 676.89 607.99 683.45 590.77 697.31 607.45 730.33 562.09"/>
      </g>
    </g>
  </g>
</svg>