<?xml version="1.0" encoding="UTF-8"?>
<svg id="Layer_1" data-name="Layer 1" xmlns="http://www.w3.org/2000/svg" viewBox="0 0 595.28 595.28">
  <defs>
    <style>
      .cls-1 {
        fill: #010f12;
      }

      .cls-2 {
        fill: #fff;
      }

      .cls-3 {
        fill: #1bf561;
      }
    </style>
  </defs>
  <rect class="cls-1" x="0" y="0" width="595.28" height="595.28"/>
  <g>
    <polygon class="cls-3" points="239.47 231.92 212.26 307.23 203.48 331.52 171.65 290.18 179.97 268.33 197.56 289.49 239.47 231.92"/>
    <polygon class="cls-2" points="177.3 317.3 143.75 363.35 166.6 303.41 177.3 317.3"/>
    <g>
      <path class="cls-2" d="M247.69,252.66h6.11l11.04,23.45,4.98-23.45h5.17l-6.39,30.08h-5.87l-11.23-23.59-5.08,23.59h-5.17l6.44-30.08Z"/>
      <path class="cls-2" d="M275.53,270.33c1.27-5.97,4.7-11.98,14.05-11.98,8.69,0,10.48,6.53,8.37,14.33h-17.58c-.47,4.61,1.17,6.44,5.12,6.44,3.62,0,5.4-1.55,6.63-3.76h5.45c-2.07,4.75-5.31,7.71-12.17,7.71-9.96,0-11.14-6.63-9.87-12.74ZM293.53,268.68c.56-4.32-.52-6.44-4.46-6.44-4.37,0-6.49,2.54-7.75,6.44h12.22Z"/>
      <path class="cls-2" d="M306.72,249.51h4.98l-2.68,12.36c1.93-2.26,4.42-3.52,7.99-3.52,8.13,0,8.88,4.7,7.43,11.56l-2.73,12.83h-5.08l2.91-13.63c.99-4.61.66-6.53-4.23-6.53-5.17,0-6.81,2.21-7.8,6.86l-2.91,13.3h-4.93l7.05-33.23Z"/>
      <path class="cls-2" d="M327.52,270.33c1.27-5.97,4.7-11.98,14.05-11.98,8.69,0,10.48,6.53,8.37,14.33h-17.58c-.47,4.61,1.17,6.44,5.12,6.44,3.62,0,5.4-1.55,6.63-3.76h5.45c-2.07,4.75-5.31,7.71-12.17,7.71-9.96,0-11.14-6.63-9.87-12.74ZM345.52,268.68c.56-4.32-.52-6.44-4.46-6.44-4.37,0-6.49,2.54-7.75,6.44h12.22Z"/>
      <path class="cls-2" d="M356.78,258.67h2.63l.47,3.15c1.79-2.07,3.95-3.48,7.66-3.48,3.15,0,5.22,1.13,6.25,3.95,1.55-2.4,3.9-3.95,7.85-3.95,6.72,0,7.42,4.89,6.25,10.43l-2.96,13.96h-5.08l3.1-14.62c.71-3.48.47-5.55-3.1-5.55-3.85,0-5.26,2.49-5.97,5.87l-3.05,14.29h-5.08l3.1-14.62c.7-3.48.47-5.55-3.1-5.55-3.85,0-5.36,2.49-6.06,5.87l-3.05,14.29h-4.98l5.12-24.06Z"/>
      <path class="cls-2" d="M394.48,258.67h5.03l-5.12,24.06h-4.98l5.08-24.06ZM398.71,249.84c2.26,0,3.67.71,3.15,3.24-.47,2.21-1.83,2.82-4.09,2.82s-3.76-.66-3.2-3.2c.52-2.26,1.88-2.87,4.14-2.87Z"/>
      <path class="cls-2" d="M400.51,270.47c1.41-6.58,4.84-12.13,12.6-12.13,4.79,0,7.52,1.5,8.55,3.9l1.93-3.57h2.82l-5.17,24.06h-2.63l-.42-3.57c-1.83,2.4-4.84,3.9-9.68,3.9-8.08,0-9.35-6.06-7.99-12.6ZM410.29,278.93c5.69,0,7.61-3.52,8.69-8.46,1.03-5.08.52-7.94-4.84-7.94-5.64,0-7.52,3.43-8.55,8.27-1.08,5.03-.61,8.13,4.7,8.13Z"/>
      <path class="cls-2" d="M433.21,249.51h4.98l-2.68,12.36c1.93-2.26,4.42-3.52,7.99-3.52,8.13,0,8.88,4.7,7.43,11.56l-2.73,12.83h-5.08l2.91-13.63c.99-4.61.66-6.53-4.23-6.53-5.17,0-6.81,2.21-7.8,6.86l-2.91,13.3h-4.93l7.05-33.23Z"/>
      <path class="cls-2" d="M247.5,291.66h20.96l-.89,4.28h-15.79l-1.83,8.37h14.33l-.85,4.18h-14.33l-1.88,8.98h15.79l-.94,4.28h-20.91l6.34-30.08Z"/>
      <path class="cls-2" d="M270.82,297.67h2.58l.42,3.52c2.16-2.35,4.7-3.85,9.26-3.85,8.08,0,8.88,4.84,7.43,11.61l-2.77,12.78h-5.03l2.91-13.58c.94-4.37.66-6.63-4.28-6.63s-6.96,2.58-7.9,7l-2.82,13.21h-4.98l5.17-24.06Z"/>
      <path class="cls-2" d="M293.59,309.33c1.27-5.97,4.7-11.98,14.05-11.98,8.69,0,10.48,6.53,8.37,14.33h-17.58c-.47,4.61,1.17,6.44,5.12,6.44,3.62,0,5.4-1.55,6.63-3.76h5.45c-2.07,4.75-5.31,7.71-12.17,7.71-9.96,0-11.14-6.63-9.87-12.74ZM311.59,307.68c.56-4.32-.52-6.44-4.46-6.44-4.37,0-6.49,2.54-7.75,6.44h12.22Z"/>
      <path class="cls-2" d="M322.85,297.67h2.58l.52,3.43c2.21-2.73,5.36-4.14,9.35-3.67l-.94,4.46c-5.64-.71-7.94,2.49-8.83,6.67l-2.82,13.16h-4.98l5.12-24.06Z"/>
      <path class="cls-2" d="M330.76,323.38h4.98c-.19,2.82.23,4.23,5.17,4.23,6.77,0,7.1-3.52,8.22-8.65-2.4,2.26-4.65,3.1-8.41,3.1-8.22,0-9.35-5.92-7.94-12.5,1.36-6.58,4.79-12.22,12.6-12.22,4.7,0,7.24,1.55,8.55,3.95l1.88-3.62h2.82l-5.17,24.44c-.99,4.56-3.34,9.35-12.78,9.35-8.18,0-10.62-2.91-9.92-8.08ZM342.56,317.88c5.88,0,7.61-3.62,8.65-8.32,1.03-5.03.56-8.08-4.79-8.08-5.64,0-7.57,3.57-8.6,8.46-1.08,4.93-.56,7.94,4.75,7.94Z"/>
      <path class="cls-2" d="M357.41,323.38h4.98c-.19,2.82.24,4.23,5.17,4.23,6.72,0,7.05-3.48,8.18-8.65-2.02,2.21-4.28,3.1-7.8,3.1-8.08,0-9.02-4.51-7.61-11.33l2.82-13.06h5.03l-3.01,13.86c-.94,4.32-.52,6.3,4.42,6.3s6.91-2.49,7.85-6.91l2.82-13.25h5.08l-5.26,24.44c-.99,4.56-3.29,9.35-12.74,9.35-8.18,0-10.62-2.91-9.92-8.08Z"/>
    </g>
  </g>
</svg>